<?xml version="1.0" encoding="UTF-8"?>
<svg xmlns="http://www.w3.org/2000/svg" xmlns:xlink="http://www.w3.org/1999/xlink" width="1440pt" height="809.999993pt" viewBox="0 0 1440 809.999993" version="1.2">
<defs>
<clipPath id="clip1">
  <path d="M 576 200.1875 L 863 200.1875 L 863 563 L 576 563 Z M 576 200.1875 "/>
</clipPath>
<clipPath id="clip2">
  <path d="M 687 544 L 752 544 L 752 609.570312 L 687 609.570312 Z M 687 544 "/>
</clipPath>
</defs>
<g id="surface1">
<g clip-path="url(#clip1)" clip-rule="nonzero">
<path style=" stroke:none;fill-rule:nonzero;fill:rgb(95.689392%,87.449646%,25.489807%);fill-opacity:1;" d="M 811.269531 235.402344 C 811.269531 235.402344 803.792969 229.335938 797.078125 224.90625 C 769.101562 206.398438 742.964844 200.121094 719.691406 200.566406 C 696.414062 200.121094 670.28125 206.398438 642.300781 224.90625 C 635.589844 229.335938 628.113281 235.402344 628.113281 235.402344 C 529.101562 321.835938 595.878906 427.074219 639.695312 473.78125 C 641.75 475.941406 643.722656 478 645.585938 479.90625 C 655.730469 491.441406 676.210938 519.128906 684.492188 562.398438 L 754.910156 562.398438 C 763.148438 519.128906 783.652344 491.441406 793.796875 479.90625 C 795.679688 478 797.628906 475.941406 799.683594 473.78125 C 843.503906 427.074219 910.28125 321.835938 811.269531 235.402344 "/>
</g>
<path style="fill:none;stroke-width:40;stroke-linecap:round;stroke-linejoin:round;stroke:rgb(90.979004%,90.979004%,90.979004%);stroke-opacity:1;stroke-miterlimit:10;" d="M 1922.808422 1988.802949 C 1922.808422 1988.802949 2034.302581 1870.807832 2008.093615 1532.004863 " transform="matrix(0.211789,0,0,-0.212006,269.425802,855.707665)"/>
<path style="fill:none;stroke-width:40;stroke-linecap:round;stroke-linejoin:round;stroke:rgb(90.979004%,90.979004%,90.979004%);stroke-opacity:1;stroke-miterlimit:10;" d="M 2309.598165 1988.802949 C 2309.598165 1988.802949 2186.797817 1868.191451 2213.301887 1532.004863 " transform="matrix(0.211789,0,0,-0.212006,269.425802,855.707665)"/>
<g clip-path="url(#clip2)" clip-rule="nonzero">
<path style=" stroke:none;fill-rule:nonzero;fill:rgb(21.958923%,20.779419%,21.179199%);fill-opacity:1;" d="M 751.691406 576.855469 C 751.691406 594.835938 737.375 609.421875 719.691406 609.421875 C 702.027344 609.421875 687.6875 594.835938 687.6875 576.855469 C 687.6875 558.878906 702.027344 544.292969 719.691406 544.292969 C 737.375 544.292969 751.691406 558.878906 751.691406 576.855469 "/>
</g>
<path style=" stroke:none;fill-rule:nonzero;fill:rgb(21.958923%,20.779419%,21.179199%);fill-opacity:1;" d="M 774.96875 561.484375 C 774.96875 566.40625 770.984375 570.390625 766.070312 570.390625 L 674.132812 570.390625 C 669.21875 570.390625 665.21875 566.40625 665.21875 561.484375 C 665.21875 556.566406 669.21875 552.5625 674.132812 552.5625 L 766.070312 552.5625 C 770.984375 552.5625 774.96875 556.566406 774.96875 561.484375 "/>
<path style=" stroke:none;fill-rule:nonzero;fill:rgb(21.958923%,20.779419%,21.179199%);fill-opacity:1;" d="M 774.96875 544.929688 C 774.96875 549.847656 770.984375 553.832031 766.070312 553.832031 L 674.132812 553.832031 C 669.21875 553.832031 665.21875 549.847656 665.21875 544.929688 C 665.21875 539.988281 669.21875 536.003906 674.132812 536.003906 L 766.070312 536.003906 C 770.984375 536.003906 774.96875 539.988281 774.96875 544.929688 "/>
<path style=" stroke:none;fill-rule:nonzero;fill:rgb(21.958923%,20.779419%,21.179199%);fill-opacity:1;" d="M 774.96875 530.425781 C 774.96875 535.347656 770.984375 539.332031 766.070312 539.332031 L 674.132812 539.332031 C 669.21875 539.332031 665.21875 535.347656 665.21875 530.425781 C 665.21875 525.507812 669.21875 521.523438 674.132812 521.523438 L 766.070312 521.523438 C 770.984375 521.523438 774.96875 525.507812 774.96875 530.425781 "/>
<path style=" stroke:none;fill-rule:nonzero;fill:rgb(21.958923%,20.779419%,21.179199%);fill-opacity:1;" d="M 774.96875 577.746094 C 774.96875 582.664062 770.984375 586.652344 766.070312 586.652344 L 674.132812 586.652344 C 669.21875 586.652344 665.21875 582.664062 665.21875 577.746094 C 665.21875 572.828125 669.21875 568.820312 674.132812 568.820312 L 766.070312 568.820312 C 770.984375 568.820312 774.96875 572.828125 774.96875 577.746094 "/>
<path style=" stroke:none;fill-rule:nonzero;fill:rgb(91.758728%,69.018555%,45.878601%);fill-opacity:1;" d="M 743.601562 256.960938 C 749.214844 256.960938 754.234375 259.398438 757.515625 263.238281 C 759.71875 262.578125 762.027344 262.21875 764.460938 262.21875 C 776.152344 262.21875 785.640625 270.359375 785.640625 280.410156 C 785.640625 280.578125 785.621094 280.75 785.597656 280.898438 C 791.867188 283.675781 796.144531 289.25 796.144531 295.695312 C 796.144531 299.277344 794.8125 302.585938 792.589844 305.296875 C 798.539062 309.328125 802.371094 315.539062 802.371094 322.554688 C 802.371094 326.222656 801.3125 329.65625 799.492188 332.691406 C 809.511719 337.035156 816.394531 345.960938 816.394531 356.285156 C 816.394531 366.335938 809.890625 375.070312 800.296875 379.542969 C 801.632812 382.214844 802.371094 385.140625 802.371094 388.234375 C 802.371094 394.445312 799.34375 400.066406 794.515625 404.070312 C 795.554688 406.105469 796.144531 408.375 796.144531 410.75 C 796.144531 417.703125 791.167969 423.660156 784.09375 426.140625 C 785.089844 428.242188 785.640625 430.53125 785.640625 432.949219 C 785.640625 442.996094 776.152344 451.136719 764.460938 451.136719 C 761.03125 451.136719 757.789062 450.417969 754.910156 449.164062 C 751.820312 451.539062 747.878906 452.960938 743.601562 452.960938 C 733.667969 452.960938 725.597656 445.351562 725.597656 435.957031 L 725.597656 273.964844 C 725.597656 264.574219 733.667969 256.960938 743.601562 256.960938 "/>
<path style="fill:none;stroke-width:20;stroke-linecap:round;stroke-linejoin:round;stroke:rgb(98.039246%,79.60968%,63.139343%);stroke-opacity:1;stroke-miterlimit:10;" d="M 2304.396949 2785.601644 C 2304.396949 2785.601644 2341.100568 2749.396084 2295.506927 2713.208949 " transform="matrix(0.211789,0,0,-0.212006,269.425802,855.707665)"/>
<path style="fill:none;stroke-width:20;stroke-linecap:round;stroke-linejoin:round;stroke:rgb(98.039246%,79.60968%,63.139343%);stroke-opacity:1;stroke-miterlimit:10;" d="M 2308.491524 1999.802806 C 2308.491524 1999.802806 2341.303452 1960.501809 2292.205446 1928.607751 " transform="matrix(0.211789,0,0,-0.212006,269.425802,855.707665)"/>
<path style="fill:none;stroke-width:20;stroke-linecap:round;stroke-linejoin:round;stroke:rgb(98.039246%,79.60968%,63.139343%);stroke-opacity:1;stroke-miterlimit:10;" d="M 2427.603066 2713.798556 C 2427.603066 2713.798556 2389.202597 2735.595593 2363.602284 2708.30784 " transform="matrix(0.211789,0,0,-0.212006,269.425802,855.707665)"/>
<path style="fill:none;stroke-width:20;stroke-linecap:round;stroke-linejoin:round;stroke:rgb(98.039246%,79.60968%,63.139343%);stroke-opacity:1;stroke-miterlimit:10;" d="M 2473.196707 2136.407397 C 2464.804674 2151.608204 2448.002163 2166.993264 2415.098014 2169.499094 " transform="matrix(0.211789,0,0,-0.212006,269.425802,855.707665)"/>
<path style="fill:none;stroke-width:20;stroke-linecap:round;stroke-linejoin:round;stroke:rgb(98.039246%,79.60968%,63.139343%);stroke-opacity:1;stroke-miterlimit:10;" d="M 2558.002355 2286.296572 C 2558.002355 2286.296572 2497.505938 2197.00795 2385.901115 2265.29182 " transform="matrix(0.211789,0,0,-0.212006,269.425802,855.707665)"/>
<path style="fill:none;stroke-width:20;stroke-linecap:round;stroke-linejoin:round;stroke:rgb(98.039246%,79.60968%,63.139343%);stroke-opacity:1;stroke-miterlimit:10;" d="M 2430.406559 1962.602285 C 2430.406559 1962.602285 2465.099778 2034.608049 2368.305511 2087.304182 " transform="matrix(0.211789,0,0,-0.212006,269.425802,855.707665)"/>
<path style="fill:none;stroke-width:20;stroke-linecap:round;stroke-linejoin:round;stroke:rgb(98.039246%,79.60968%,63.139343%);stroke-opacity:1;stroke-miterlimit:10;" d="M 2511.504957 2544.102268 C 2511.504957 2544.102268 2486.808401 2636.596879 2368.305511 2596.798401 " transform="matrix(0.211789,0,0,-0.212006,269.425802,855.707665)"/>
<path style="fill:none;stroke-width:20;stroke-linecap:round;stroke-linejoin:round;stroke:rgb(98.039246%,79.60968%,63.139343%);stroke-opacity:1;stroke-miterlimit:10;" d="M 2482.197394 2446.798675 C 2482.197394 2446.798675 2450.602771 2411.809179 2398.701272 2430.19755 " transform="matrix(0.211789,0,0,-0.212006,269.425802,855.707665)"/>
<path style=" stroke:none;fill-rule:nonzero;fill:rgb(91.758728%,69.018555%,45.878601%);fill-opacity:1;" d="M 695.800781 256.960938 C 690.167969 256.960938 685.148438 259.398438 681.84375 263.238281 C 679.683594 262.578125 677.351562 262.21875 674.917969 262.21875 C 663.226562 262.21875 653.738281 270.359375 653.738281 280.410156 C 653.738281 280.578125 653.761719 280.75 653.78125 280.898438 C 647.511719 283.675781 643.234375 289.25 643.234375 295.695312 C 643.234375 299.277344 644.546875 302.585938 646.792969 305.296875 C 640.839844 309.328125 637.007812 315.539062 637.007812 322.554688 C 637.007812 326.222656 638.046875 329.65625 639.886719 332.691406 C 629.871094 337.035156 622.988281 345.960938 622.988281 356.285156 C 622.988281 366.335938 629.488281 375.070312 639.082031 379.542969 C 637.75 382.214844 637.007812 385.140625 637.007812 388.234375 C 637.007812 394.445312 640.035156 400.066406 644.863281 404.070312 C 643.828125 406.105469 643.234375 408.375 643.234375 410.75 C 643.234375 417.703125 648.210938 423.660156 655.285156 426.140625 C 654.3125 428.242188 653.738281 430.53125 653.738281 432.949219 C 653.738281 442.996094 663.226562 451.136719 674.917969 451.136719 C 678.347656 451.136719 681.589844 450.417969 684.46875 449.164062 C 687.5625 451.539062 691.5 452.960938 695.800781 452.960938 C 705.710938 452.960938 713.761719 445.351562 713.761719 435.957031 L 713.761719 273.964844 C 713.761719 264.574219 705.710938 256.960938 695.800781 256.960938 "/>
<path style="fill:none;stroke-width:20;stroke-linecap:round;stroke-linejoin:round;stroke:rgb(98.039246%,79.60968%,63.139343%);stroke-opacity:1;stroke-miterlimit:10;" d="M 1947.597198 2785.601644 C 1947.597198 2785.601644 1911.004243 2749.396084 1956.597884 2713.208949 " transform="matrix(0.211789,0,0,-0.212006,269.425802,855.707665)"/>
<path style="fill:none;stroke-width:20;stroke-linecap:round;stroke-linejoin:round;stroke:rgb(98.039246%,79.60968%,63.139343%);stroke-opacity:1;stroke-miterlimit:10;" d="M 1943.502623 1999.802806 C 1943.502623 1999.802806 1910.709139 1960.501809 1959.807145 1928.607751 " transform="matrix(0.211789,0,0,-0.212006,269.425802,855.707665)"/>
<path style="fill:none;stroke-width:20;stroke-linecap:round;stroke-linejoin:round;stroke:rgb(98.039246%,79.60968%,63.139343%);stroke-opacity:1;stroke-miterlimit:10;" d="M 1824.501745 2713.798556 C 1824.501745 2713.798556 1862.79155 2735.595593 1888.391863 2708.30784 " transform="matrix(0.211789,0,0,-0.212006,269.425802,855.707665)"/>
<path style="fill:none;stroke-width:20;stroke-linecap:round;stroke-linejoin:round;stroke:rgb(98.039246%,79.60968%,63.139343%);stroke-opacity:1;stroke-miterlimit:10;" d="M 1778.79744 2136.407397 C 1787.207917 2151.608204 1803.899764 2166.993264 1836.896133 2169.499094 " transform="matrix(0.211789,0,0,-0.212006,269.425802,855.707665)"/>
<path style="fill:none;stroke-width:20;stroke-linecap:round;stroke-linejoin:round;stroke:rgb(98.039246%,79.60968%,63.139343%);stroke-opacity:1;stroke-miterlimit:10;" d="M 1693.899572 2286.296572 C 1693.899572 2286.296572 1754.506653 2197.00795 1866.203696 2265.29182 " transform="matrix(0.211789,0,0,-0.212006,269.425802,855.707665)"/>
<path style="fill:none;stroke-width:20;stroke-linecap:round;stroke-linejoin:round;stroke:rgb(98.039246%,79.60968%,63.139343%);stroke-opacity:1;stroke-miterlimit:10;" d="M 1821.606032 1962.602285 C 1821.606032 1962.602285 1786.894369 2034.608049 1883.70708 2087.304182 " transform="matrix(0.211789,0,0,-0.212006,269.425802,855.707665)"/>
<path style="fill:none;stroke-width:20;stroke-linecap:round;stroke-linejoin:round;stroke:rgb(98.039246%,79.60968%,63.139343%);stroke-opacity:1;stroke-miterlimit:10;" d="M 1740.507634 2544.102268 C 1740.507634 2544.102268 1765.20419 2636.596879 1883.70708 2596.798401 " transform="matrix(0.211789,0,0,-0.212006,269.425802,855.707665)"/>
<path style="fill:none;stroke-width:20;stroke-linecap:round;stroke-linejoin:round;stroke:rgb(98.039246%,79.60968%,63.139343%);stroke-opacity:1;stroke-miterlimit:10;" d="M 1769.796753 2446.798675 C 1769.796753 2446.798675 1801.391376 2411.809179 1853.292875 2430.19755 " transform="matrix(0.211789,0,0,-0.212006,269.425802,855.707665)"/>
<path style="fill:none;stroke-width:40;stroke-linecap:round;stroke-linejoin:round;stroke:rgb(96.078491%,52.549744%,6.669617%);stroke-opacity:1;stroke-miterlimit:10;" d="M 2126.006296 2942.69508 L 2126.006296 2855.193704 " transform="matrix(0.211789,0,0,-0.212006,269.425802,855.707665)"/>
<path style="fill:none;stroke-width:40;stroke-linecap:round;stroke-linejoin:round;stroke:rgb(96.078491%,52.549744%,6.669617%);stroke-opacity:1;stroke-miterlimit:10;" d="M 1590.502342 2567.207496 L 1678.000818 2567.207496 " transform="matrix(0.211789,0,0,-0.212006,269.425802,855.707665)"/>
<path style="fill:none;stroke-width:40;stroke-linecap:round;stroke-linejoin:round;stroke:rgb(96.078491%,52.549744%,6.669617%);stroke-opacity:1;stroke-miterlimit:10;" d="M 1708.691684 2828.292881 L 1771.1985 2767.102721 " transform="matrix(0.211789,0,0,-0.212006,269.425802,855.707665)"/>
<path style="fill:none;stroke-width:40;stroke-linecap:round;stroke-linejoin:round;stroke:rgb(96.078491%,52.549744%,6.669617%);stroke-opacity:1;stroke-miterlimit:10;" d="M 2662.893551 2567.207496 L 2575.395075 2567.207496 " transform="matrix(0.211789,0,0,-0.212006,269.425802,855.707665)"/>
<path style="fill:none;stroke-width:40;stroke-linecap:round;stroke-linejoin:round;stroke:rgb(96.078491%,52.549744%,6.669617%);stroke-opacity:1;stroke-miterlimit:10;" d="M 2544.70421 2828.292881 L 2482.197394 2767.102721 " transform="matrix(0.211789,0,0,-0.212006,269.425802,855.707665)"/>
<path style="fill:none;stroke-width:30;stroke-linecap:round;stroke-linejoin:round;stroke:rgb(90.979004%,90.979004%,90.979004%);stroke-opacity:1;stroke-miterlimit:10;" d="M 2135.707855 1201.308992 C 2135.707855 1201.308992 2186.299828 1210.005696 2219.99707 1248.20118 " transform="matrix(0.211789,0,0,-0.212006,269.425802,855.707665)"/>
</g>
</svg>
